<svg width="24" height="24" viewBox="0 0 24 24" fill="none" xmlns="http://www.w3.org/2000/svg">
<path d="M11.9999 7.63701C9.59034 7.63701 7.63696 9.59038 7.63696 12C7.63696 14.4096 9.59034 16.363 11.9999 16.363C14.4096 16.363 16.3629 14.4096 16.3629 12C16.3602 9.59151 14.4084 7.63973 11.9999 7.63701ZM11.9999 13.363C11.2472 13.363 10.637 12.7528 10.637 12C10.637 11.2472 11.2472 10.637 11.9999 10.637C12.7527 10.637 13.3629 11.2472 13.3629 12C13.3624 12.7525 12.7525 13.3625 11.9999 13.363Z" fill="#40609E"/>
<path d="M21.9999 12C21.9984 10.4677 21.6421 8.95655 20.9589 7.58498L21.4729 7.22798C22.1524 6.75436 22.3194 5.81958 21.8459 5.13998C21.3723 4.46048 20.4375 4.29352 19.7579 4.767L19.2429 5.12498C17.716 3.51342 15.6949 2.45761 13.4999 2.12498V1.5C13.4999 0.671578 12.8283 0 11.9999 0C11.1715 0 10.4999 0.671578 10.4999 1.5V2.12498C8.30493 2.45761 6.28378 3.51342 4.75692 5.12498L4.2419 4.767C3.56231 4.29352 2.62753 4.46053 2.1539 5.13998C1.68042 5.81958 1.84743 6.75436 2.52689 7.22798L3.04087 7.58498C1.6529 10.3647 1.6529 13.6353 3.04087 16.415L2.52689 16.772C1.84739 17.2456 1.68042 18.1804 2.1539 18.86C2.62753 19.5395 3.56231 19.7064 4.2419 19.233L4.75692 18.875C6.28382 20.4865 8.30493 21.5423 10.4999 21.875V22.5C10.4999 23.3284 11.1715 24 11.9999 24C12.8283 24 13.4999 23.3284 13.4999 22.5V21.875C15.6949 21.5424 17.716 20.4866 19.2429 18.875L19.7579 19.233C20.4375 19.7065 21.3723 19.5395 21.8459 18.86C22.3194 18.1804 22.1524 17.2456 21.4729 16.772L20.9589 16.415C21.6421 15.0435 21.9984 13.5323 21.9999 12ZM12 19C8.13393 19 4.99997 15.866 4.99997 12C4.99997 8.13403 8.13393 5.00002 12 5.00002C15.866 5.00002 18.9999 8.13398 18.9999 12C18.995 15.864 15.8639 18.9951 12 19Z" fill="#40609E"/>
</svg>
