<svg width="24" height="24" viewBox="0 0 24 24" fill="none" xmlns="http://www.w3.org/2000/svg">
<g clip-path="url(#clip0_155_25)">
<path d="M17.9964 21.6C16.9176 21.6 16.4508 21.2268 15.7452 20.6628C14.9292 20.0112 13.9152 19.2 11.9928 19.2C10.0716 19.2 9.0576 20.0112 8.2428 20.664C7.5384 21.2268 7.0728 21.6 5.994 21.6C4.9176 21.6 4.452 21.2268 3.7476 20.664C2.9328 20.0112 1.9212 19.2 0 19.2V21.6C1.0776 21.6 1.5432 21.9732 2.2476 22.536C3.0624 23.1888 4.0752 24 5.994 24C7.9152 24 8.928 23.1888 9.7428 22.5372C10.4484 21.9732 10.914 21.6 11.9928 21.6C13.0728 21.6 13.566 21.9936 14.2464 22.5372C15.0612 23.1888 16.0752 24 17.9964 24C19.9176 24 20.9316 23.1888 21.7464 22.5372C22.4268 21.9936 22.92 21.6 24 21.6V19.2C22.0776 19.2 21.0636 20.0112 20.2476 20.6628C19.542 21.2268 19.0752 21.6 17.9964 21.6ZM4.8 7.8L2.4 8.4L4.8 18H5.994C7.9152 18 8.928 17.1888 9.7428 16.5372C10.4484 15.9732 10.914 15.6 11.9928 15.6C13.0728 15.6 13.566 15.9936 14.2464 16.5372C15.0612 17.1888 16.0752 18 17.9964 18H19.2L19.2324 17.8716L19.608 16.3692L21.6 8.4L19.2 7.8V3.6012C19.2001 3.32368 19.104 3.05471 18.9281 2.84007C18.7522 2.62543 18.5073 2.47839 18.2352 2.424L13.2 1.4172V0H10.8V1.4172L5.7648 2.424C5.49267 2.47839 5.2478 2.62543 5.07188 2.84007C4.89597 3.05471 4.79989 3.32368 4.8 3.6012V7.8ZM7.2 4.5828L12 3.6228L16.8 4.5828V7.2L12 6L7.2 7.2V4.5828Z" fill="#40609E"/>
</g>
<defs>
<clipPath id="clip0_155_25">
<rect width="24" height="24" fill="#40609E"/>
</clipPath>
</defs>
</svg>
